<svg xmlns="http://www.w3.org/2000/svg" xmlns:xlink="http://www.w3.org/1999/xlink" version="1.1" viewBox="-84.96 112.15 1139.43 855.7">
<desc>Created with Fabric.js 4.2.0</desc>
<defs>
</defs>
<g transform="matrix(1 0 0 1 540 540)" id="b13d279c-a7c8-43f8-8418-b25b69802bc2">
</g>
<g transform="matrix(1.05 0 0 1.05 484.45 540)">
<g style="" vector-effect="non-scaling-stroke">
		<g transform="matrix(1.14 0 0 1.14 201.2 81.18)">
<path style="stroke: none; stroke-width: 1; stroke-dasharray: none; stroke-linecap: butt; stroke-dashoffset: 0; stroke-linejoin: miter; stroke-miterlimit: 4; fill: rgb(255,219,144); fill-rule: nonzero; opacity: 1;" vector-effect="non-scaling-stroke" transform=" translate(-165.62, -226.03)" d="M -94.1058 347.385 C -173.166 264.173 -129.411 152.842 -11.8513 152.738 C 38.2839 152.698 81.5833 146.74 126.879 119.868 C 191.565 81.4719 231.015 20.0446 315.697 30.4263 C 441.73 45.7432 496.13 170.706 447.911 280.464 C 414.698 356.026 345.173 393.703 268.301 409.388 C 162.153 431.013 -12.602 436.468 -94.1058 347.385 Z" stroke-linecap="round"/>
</g>
		<g transform="matrix(-0.7 0.9 -0.9 -0.7 -155.41 0)">
<path style="stroke: none; stroke-width: 1; stroke-dasharray: none; stroke-linecap: butt; stroke-dashoffset: 0; stroke-linejoin: miter; stroke-miterlimit: 4; fill: rgb(214,235,244); fill-rule: nonzero; opacity: 1;" vector-effect="non-scaling-stroke" transform=" translate(-165.62, -226.03)" d="M -94.1058 347.385 C -173.166 264.173 -129.411 152.842 -11.8513 152.738 C 38.2839 152.698 81.5833 146.74 126.879 119.868 C 191.565 81.4719 231.015 20.0446 315.697 30.4263 C 441.73 45.7432 496.13 170.706 447.911 280.464 C 414.698 356.026 345.173 393.703 268.301 409.388 C 162.153 431.013 -12.602 436.468 -94.1058 347.385 Z" stroke-linecap="round"/>
</g>
</g>
</g>
</svg>